# xmcd CD database file
#
# Track frame offsets:
#	150
#	15725
#	25012
#	41292
#	52617
#	72515
#	86805
#	104675
#	117685
#	132730
#	146692
#	160835
#	173212
#	186232
#	199957
#	214010
#
# Disc length: 3141 seconds
#
# Revision: 1
# Processed by: cddbd v1.5.1PL2 Copyright (c) Steve Scherf et al.
# Submitted via: CDex 1.51
#
DISCID=ed0c4310
DTITLE=Hana Lounova - Diamant v pisku
DYEAR=1996
DGENRE=Country
TTITLE0=Honky Tonky (Honky Tonky Heart)
TTITLE1=Jednou sem jednou tam (Up and gone)
TTITLE2=Cekej na muj Jumbo Jet (Leaving on a Jet Plane)
TTITLE3=To si za klobouk dej  (A little too late)
TTITLE4=Ja te porad rada mam (All Im left to do is crying)
TTITLE5=Sportak (Bon temps la Lousiana)
TTITLE6=Plamen lasky (Carrying A Torch)
TTITLE7=Stali jsme straz ( Some Where Beetween gone and Good Bye)
TTITLE8=Tak palec sam sobe si zlom ( Keep moving on)
TTITLE9=Mas jeden domov ( Just Can't let Go)
TTITLE10=Hej tak hrej (Hey Renne)
TTITLE11=Ghetto  (In the Ghetto)
TTITLE12=Pulnoc je zla (Feelin kind of lovely Tonight)
TTITLE13=Cesty (As long as belong to me)
TTITLE14=Ja Otcenas a Zdravas
TTITLE15=Diamant v pisku ( (Just Can't let Go)
EXTD=YEAR: 1996
EXTT0=
EXTT1=
EXTT2=
EXTT3=
EXTT4=
EXTT5=
EXTT6=
EXTT7=
EXTT8=
EXTT9=
EXTT10=
EXTT11=
EXTT12=
EXTT13=
EXTT14=
EXTT15=
PLAYORDER=
